<?xml version="1.0" encoding="utf-8"?>
<!-- Generator: Adobe Illustrator 24.0.1, SVG Export Plug-In . SVG Version: 6.00 Build 0)  -->
<svg version="1.1" xmlns="http://www.w3.org/2000/svg" xmlns:xlink="http://www.w3.org/1999/xlink" x="0px" y="0px"
	 viewBox="0 0 300 300" style="enable-background:new 0 0 300 300;" xml:space="preserve">
<style type="text/css">
	.st0{fill:#484848;}
	.st1{fill:#A71F26;}
	.st2{fill:#FFFFFF;}
	.st3{fill:none;stroke:#FFFFFF;stroke-width:12.3264;stroke-miterlimit:10;}
	.st4{fill:none;stroke:#FFFFFF;stroke-width:4.2022;stroke-linecap:round;stroke-miterlimit:10;}
	.st5{fill:none;stroke:#FFFFFF;stroke-width:9.0602;stroke-miterlimit:10;}
	.st6{fill:none;stroke:#FFFFFF;stroke-width:9.1047;stroke-miterlimit:10;}
	.st7{fill:none;stroke:#FFFFFF;stroke-width:3.6992;stroke-miterlimit:10;}
	.st8{fill:none;stroke:#FFFFFF;stroke-width:3.7823;stroke-miterlimit:10;}
	.st9{fill:none;stroke:#FFFFFF;stroke-width:5.0962;stroke-linecap:round;stroke-miterlimit:10;}
	.st10{display:none;fill:#FFFFFF;}
	.st11{fill:none;stroke:#FFFFFF;stroke-width:5.3928;stroke-miterlimit:10;}
	.st12{fill:none;stroke:#FFFFFF;stroke-width:5.39;stroke-miterlimit:10;}
	.st13{fill:none;stroke:#FFFFFF;stroke-width:4.2;stroke-linecap:round;stroke-miterlimit:10;}
	.st14{fill:none;stroke:#FFFFFF;stroke-width:5.1148;stroke-miterlimit:10;}
	.st15{fill:none;stroke:#FFFFFF;stroke-width:1.7437;stroke-linecap:round;stroke-miterlimit:10;}
	.st16{fill:none;stroke:#FFFFFF;stroke-width:3.7595;stroke-miterlimit:10;}
	.st17{fill:none;stroke:#FFFFFF;stroke-width:3.778;stroke-miterlimit:10;}
	.st18{fill:none;stroke:#FFFFFF;stroke-width:1.535;stroke-miterlimit:10;}
	.st19{fill:none;stroke:#FFFFFF;stroke-width:1.5695;stroke-miterlimit:10;}
	.st20{fill:none;stroke:#FFFFFF;stroke-width:2.1147;stroke-linecap:round;stroke-miterlimit:10;}
	.st21{fill:none;stroke:#FFFFFF;stroke-width:2.2377;stroke-miterlimit:10;}
	.st22{fill:none;stroke:#FFFFFF;stroke-width:2.2366;stroke-miterlimit:10;}
	.st23{fill:none;stroke:#FFFFFF;stroke-width:1.7428;stroke-linecap:round;stroke-miterlimit:10;}
</style>
<g id="bgs">
</g>
<g id="Layer_1">
	<g>
		<g>
			<circle class="st1" cx="150" cy="150" r="150"/>
		</g>
		<g>
			<g>
				<path class="st2" d="M107.09,193.16v-86.32h13.06c3.96,0,6.83,0.77,8.63,2.32c1.8,1.55,2.73,4.12,2.81,7.72
					c0.22,6.26,0.32,11.8,0.32,16.62c0,4.82-0.11,9.68-0.32,14.57c-0.22,5.04-2.23,8.13-6.04,9.28l7.98,35.82H129l-7.77-35.18h-9.82
					v35.18H107.09z M111.41,153.88h8.63c2.73,0,4.6-0.41,5.61-1.24c1.01-0.83,1.55-2.36,1.62-4.59c0.14-4.1,0.23-7.73,0.27-10.9
					c0.04-3.16,0.05-6.31,0.05-9.44s-0.11-6.74-0.32-10.84c-0.07-2.3-0.59-3.87-1.56-4.69c-0.97-0.83-2.82-1.24-5.56-1.24h-8.74
					V153.88z"/>
			</g>
			<g>
				<path class="st2" d="M144.32,193.16v-86.32h4.32v86.32H144.32z"/>
			</g>
			<g>
				<path class="st2" d="M163.74,193.16v-86.32h12.52c4.46,0,7.64,0.77,9.55,2.32c1.91,1.55,2.89,4.12,2.97,7.72
					c0.14,7.91,0.23,15.41,0.27,22.5c0.04,7.09,0.04,14.17,0,21.26c-0.04,7.09-0.13,14.59-0.27,22.5c-0.07,3.53-1.01,6.08-2.81,7.66
					c-1.8,1.58-4.71,2.37-8.74,2.37H163.74z M168.05,189.06h9.17c2.81,0,4.69-0.43,5.66-1.3c0.97-0.86,1.49-2.41,1.56-4.64
					c0.14-6.47,0.25-12.37,0.32-17.7c0.07-5.32,0.11-10.47,0.11-15.43s-0.04-10.11-0.11-15.43c-0.07-5.32-0.18-11.22-0.32-17.7
					c-0.07-2.3-0.67-3.87-1.78-4.69c-1.12-0.83-3.26-1.24-6.42-1.24h-8.2V189.06z"/>
			</g>
			<g>
				<path class="st2" d="M217.47,193.7c-4.82,0-8.2-0.86-10.14-2.59c-1.94-1.73-2.95-4.57-3.02-8.52
					c-0.07-7.77-0.13-15.14-0.16-22.12c-0.04-6.98-0.04-13.95,0-20.93c0.04-6.98,0.09-14.35,0.16-22.12
					c0.07-4.03,1.06-6.89,2.97-8.58c1.91-1.69,5.27-2.54,10.09-2.54c4.75,0,8.09,0.85,10.03,2.54c1.94,1.69,2.95,4.55,3.02,8.58
					c0.14,3.38,0.22,6.38,0.22,9.01c0,2.63-0.07,5.63-0.22,9.01h-4.32c0.14-3.38,0.22-6.38,0.22-9.01c0-2.62-0.07-5.63-0.22-9.01
					c-0.07-2.73-0.67-4.59-1.78-5.56c-1.12-0.97-3.44-1.46-6.96-1.46c-3.53,0-5.85,0.49-6.96,1.46c-1.12,0.97-1.71,2.82-1.78,5.56
					c-0.07,6.4-0.14,12.21-0.22,17.43c-0.07,5.22-0.11,10.27-0.11,15.16c0,4.89,0.04,9.95,0.11,15.16
					c0.07,5.22,0.14,11.02,0.22,17.43c0.07,2.73,0.66,4.59,1.78,5.56c1.11,0.97,3.47,1.46,7.07,1.46c3.74,0,6.17-0.49,7.28-1.46
					c1.11-0.97,1.71-2.82,1.78-5.56c0.07-3.45,0.11-6.49,0.11-9.12c0-2.62-0.04-5.66-0.11-9.12H216.5v-4.32h14.35
					c0.07,5.18,0.11,9.41,0.11,12.68c0,3.27-0.04,6.56-0.11,9.87c-0.07,3.96-1.1,6.8-3.08,8.52
					C225.8,192.84,222.36,193.7,217.47,193.7z"/>
			</g>
			<g>
				<path class="st2" d="M256.96,193.7c-4.46,0-7.68-0.92-9.66-2.75c-1.98-1.83-3-4.87-3.07-9.12c-0.07-6.19-0.13-11.89-0.16-17.1
					c-0.04-5.21-0.05-10.25-0.05-15.11s0.02-9.82,0.05-14.89c0.04-5.07,0.09-10.56,0.16-16.45c0.07-4.24,1.1-7.3,3.07-9.17
					c1.98-1.87,5.2-2.81,9.66-2.81c4.46,0,7.68,0.94,9.66,2.81c1.98,1.87,3,4.93,3.07,9.17c0.07,5.9,0.12,11.38,0.16,16.45
					c0.04,5.07,0.05,10.03,0.05,14.89s-0.02,9.89-0.05,15.11c-0.04,5.22-0.09,10.92-0.16,17.1c-0.07,4.25-1.1,7.28-3.07,9.12
					C264.64,192.78,261.42,193.7,256.96,193.7z M256.96,189.6c3.24,0,5.43-0.52,6.58-1.56c1.15-1.04,1.76-3.11,1.83-6.2
					c0.14-6.47,0.23-12.23,0.27-17.26c0.04-5.03,0.05-9.85,0.05-14.46c0-4.6-0.02-9.44-0.05-14.51c-0.04-5.07-0.13-10.84-0.27-17.32
					c-0.07-3.09-0.68-5.18-1.83-6.26c-1.15-1.08-3.35-1.62-6.58-1.62s-5.43,0.54-6.58,1.62c-1.15,1.08-1.76,3.17-1.83,6.26
					c-0.07,6.26-0.15,11.87-0.22,16.83c-0.07,4.96-0.11,9.76-0.11,14.4c0,4.64,0.04,9.53,0.11,14.67
					c0.07,5.14,0.14,11.02,0.22,17.64c0.07,3.09,0.68,5.16,1.83,6.2C251.53,189.08,253.73,189.6,256.96,189.6z"/>
			</g>
			<g>
				<path class="st2" d="M94.14,110.94v-4.1l-56.92-0.04c-3.97,0-7.2,3.23-7.2,7.2v79.2l44.81-0.04v-41.11h18.24v-4.1H74.83v-37.01
					H94.14z M37.22,110.96h33.29v24.77H34.18V114C34.18,112.32,35.54,110.96,37.22,110.96z M34.18,139.88h36.34v49.16H34.18V139.88z
					"/>
				<path class="st2" d="M39.55,130.98c-0.89,0-1.62-0.73-1.62-1.62v-13.75c0-0.89,0.72-1.62,1.62-1.62s1.62,0.73,1.62,1.62v13.75
					C41.17,130.25,40.44,130.98,39.55,130.98z"/>
				<path class="st2" d="M39.55,163.74c-0.89,0-1.62-0.73-1.62-1.62v-16.8c0-0.89,0.72-1.62,1.62-1.62s1.62,0.73,1.62,1.62v16.8
					C41.17,163.01,40.44,163.74,39.55,163.74z"/>
			</g>
		</g>
		<rect x="6.39" y="106.6" class="st10" width="23.63" height="86.8"/>
		<rect x="269.91" y="106.6" class="st10" width="23.63" height="86.8"/>
	</g>
</g>
<g id="Layer_2">
</g>
</svg>
